<?xml version="1.0" standalone="no"?>
<!DOCTYPE svg PUBLIC "-//W3C//DTD SVG 20010904//EN"
 "http://www.w3.org/TR/2001/REC-SVG-20010904/DTD/svg10.dtd">
<svg version="1.0" xmlns="http://www.w3.org/2000/svg"
 width="700.000000pt" height="700.000000pt" viewBox="0 0 700.000000 700.000000"
 preserveAspectRatio="xMidYMid meet">
<metadata>
Created by potrace 1.14, written by Peter Selinger 2001-2017
</metadata>
<g transform="translate(0.000000,700.000000) scale(0.100000,-0.100000)"
fill="#000000" stroke="none">
<path d="M4528 6995 c-2 -2 -18 -7 -36 -10 -91 -16 -194 -77 -270 -159 -88
-96 -134 -211 -135 -335 -1 -157 38 -261 139 -371 203 -218 540 -225 751 -14
l52 52 268 -155 c147 -85 286 -165 308 -177 22 -13 155 -90 295 -171 140 -81
307 -176 370 -213 63 -36 122 -71 130 -78 13 -11 15 -113 15 -811 0 -439 -4
-803 -8 -810 -4 -6 -40 -30 -80 -52 -39 -22 -94 -54 -122 -70 -27 -17 -61 -36
-75 -43 -14 -8 -142 -82 -285 -165 -143 -83 -277 -160 -297 -172 -81 -45 -163
-93 -407 -235 -110 -64 -144 -76 -155 -57 -3 5 -32 24 -64 41 -31 18 -246 142
-477 275 -231 134 -439 253 -461 266 -23 13 -115 66 -205 118 l-164 95 0 863
0 863 -30 29 c-25 25 -93 67 -315 193 -62 36 -746 431 -1000 578 -199 115
-253 142 -285 143 -34 0 -78 -22 -300 -150 -143 -83 -276 -160 -295 -171 -19
-10 -147 -85 -285 -164 -137 -80 -326 -189 -420 -243 -282 -161 -312 -182
-324 -217 -8 -21 -11 -302 -11 -920 0 -733 2 -894 14 -922 12 -28 49 -53 277
-186 145 -84 275 -159 289 -166 14 -8 230 -132 480 -277 l455 -263 2 -865 c1
-475 2 -876 2 -891 1 -16 13 -41 29 -58 22 -23 276 -175 627 -375 22 -12 240
-139 485 -281 400 -232 450 -258 490 -258 41 -1 87 24 525 278 264 154 498
289 520 301 22 13 125 72 230 133 l190 110 43 -30 c50 -34 134 -74 177 -84 53
-11 179 -13 230 -2 186 38 342 185 399 377 46 154 -1 354 -111 481 -214 243
-605 234 -804 -19 -114 -145 -138 -296 -84 -513 6 -23 3 -29 -26 -44 -19 -9
-214 -121 -434 -249 -220 -127 -502 -290 -627 -362 l-228 -132 -82 48 c-46 27
-155 90 -243 141 -88 51 -234 135 -325 187 -91 52 -172 99 -180 103 -118 71
-158 94 -211 123 -35 20 -129 74 -209 120 l-145 85 -3 836 -2 836 40 25 c22
14 42 25 45 25 3 0 24 12 48 27 23 15 51 32 62 38 47 26 1092 629 1115 643 14
9 40 25 58 34 l32 18 228 -131 c125 -72 234 -135 242 -140 8 -4 44 -26 80 -47
36 -21 72 -42 80 -46 8 -4 24 -12 35 -19 11 -7 52 -30 90 -52 39 -22 78 -44
87 -50 10 -5 64 -37 120 -69 57 -33 195 -113 308 -179 165 -96 213 -119 245
-120 34 0 76 20 270 132 127 74 250 145 275 159 25 13 50 28 55 32 8 6 321
186 518 299 429 246 482 279 499 312 17 32 18 97 18 931 0 652 -3 904 -11 922
-16 34 -26 40 -479 301 -529 305 -708 409 -750 434 -19 11 -46 26 -60 33 -14
7 -70 40 -126 73 -81 48 -100 64 -97 80 4 26 4 145 0 165 -15 69 -24 94 -54
155 -65 129 -201 236 -340 269 -54 12 -196 20 -205 11z m168 -244 c86 -24 170
-112 195 -206 6 -22 9 -65 6 -96 -21 -241 -316 -350 -489 -182 -50 48 -69 83
-83 153 -20 94 4 175 72 251 76 84 183 113 299 80z m-2236 -861 c250 -145 464
-268 475 -274 11 -6 116 -67 233 -135 170 -99 212 -127 213 -144 5 -197 -1
-1591 -7 -1597 -8 -7 -111 -68 -299 -175 -82 -46 -791 -455 -805 -464 -89 -55
-282 -161 -293 -161 -8 0 -20 7 -27 15 -7 8 -16 15 -20 15 -4 0 -85 45 -180
100 -94 55 -173 100 -175 100 -2 0 -50 28 -107 61 -56 34 -117 70 -135 80 -44
25 -420 242 -463 267 -19 12 -48 28 -65 37 -16 8 -73 41 -125 73 l-95 57 0
806 0 807 179 103 c99 57 188 109 198 114 10 6 84 48 165 95 81 47 167 97 192
111 57 33 397 230 546 316 61 35 117 62 125 60 8 -2 220 -122 470 -267z m2977
-4406 c57 -27 101 -72 135 -137 32 -61 32 -185 0 -244 -79 -150 -238 -208
-384 -140 -39 17 -58 32 -58 44 0 25 -37 83 -53 83 -8 0 -22 9 -33 21 -16 18
-19 37 -19 113 0 82 3 96 29 140 82 139 240 189 383 120z"/>
<path d="M1966 5733 c-11 -3 -161 -89 -335 -192 -174 -103 -386 -229 -472
-279 -86 -51 -165 -102 -175 -113 -14 -15 -19 -36 -19 -75 0 -45 4 -58 28 -81
23 -24 36 -28 80 -27 47 0 65 8 177 76 148 89 647 385 707 419 38 21 45 22 64
10 13 -7 43 -25 68 -39 25 -14 75 -42 110 -64 34 -21 64 -38 66 -38 2 0 76
-43 165 -95 89 -52 164 -95 167 -95 2 0 27 -15 56 -33 101 -65 224 -127 251
-127 62 0 116 55 116 117 0 56 -31 85 -191 177 -85 49 -206 119 -269 156 -539
312 -545 316 -594 303z"/>
</g>
</svg>
